<svg width="7" height="12" viewBox="0 0 7 12" fill="none" xmlns="http://www.w3.org/2000/svg">
<path d="M0.646223 1.35378C0.599768 1.30732 0.562918 1.25217 0.537776 1.19147C0.512635 1.13078 0.499694 1.06572 0.499694 1.00003C0.499694 0.934329 0.512635 0.869275 0.537776 0.808578C0.562918 0.747882 0.599768 0.692732 0.646223 0.646276C0.692677 0.599821 0.747828 0.562972 0.808525 0.53783C0.869221 0.512689 0.934275 0.499748 0.999973 0.499748C1.06567 0.499748 1.13072 0.512689 1.19142 0.53783C1.25212 0.562972 1.30727 0.599821 1.35372 0.646276L6.35372 5.64628C6.40021 5.69271 6.43709 5.74786 6.46225 5.80856C6.48741 5.86926 6.50037 5.93432 6.50037 6.00003C6.50037 6.06573 6.48741 6.1308 6.46225 6.1915C6.43709 6.2522 6.40021 6.30734 6.35372 6.35378L1.35372 11.3538C1.2599 11.4476 1.13265 11.5003 0.999973 11.5003C0.867291 11.5003 0.740043 11.4476 0.646223 11.3538C0.552402 11.26 0.499694 11.1327 0.499694 11C0.499694 10.8673 0.552402 10.7401 0.646223 10.6463L5.2931 6.00003L0.646223 1.35378Z" fill="#242328"/>
</svg>
