<svg width="18" height="17" viewBox="0 0 18 17" fill="none" xmlns="http://www.w3.org/2000/svg">
<path d="M14 4.62503H10.8906C10.6633 4.61174 6.70156 4.33284 2.92891 1.16878C2.74672 1.01577 2.52466 0.917933 2.2888 0.886756C2.05294 0.85558 1.81309 0.89236 1.59741 0.992775C1.38173 1.09319 1.19918 1.25307 1.07122 1.45364C0.943252 1.6542 0.875181 1.88712 0.875 2.12503V14.625C0.875032 14.863 0.942996 15.096 1.0709 15.2967C1.19881 15.4974 1.38135 15.6574 1.59705 15.7579C1.81276 15.8584 2.05268 15.8953 2.28861 15.8641C2.52454 15.833 2.74667 15.7351 2.92891 15.5821C5.87969 13.1071 8.94453 12.3977 10.25 12.1992V14.6774C10.2497 14.8833 10.3004 15.0862 10.3974 15.2679C10.4945 15.4496 10.6349 15.6045 10.8062 15.7188L11.6656 16.2914C11.8317 16.4023 12.022 16.4718 12.2204 16.494C12.4189 16.5162 12.6198 16.4906 12.8063 16.4192C12.9928 16.3478 13.1595 16.2328 13.2925 16.0837C13.4254 15.9347 13.5207 15.756 13.5703 15.5625L14.4898 12.0969C15.4404 11.9801 16.3103 11.5041 16.9211 10.7664C17.5318 10.0287 17.8372 9.08524 17.7745 8.12957C17.7119 7.1739 17.286 6.27841 16.5841 5.62677C15.8823 4.97512 14.9577 4.61671 14 4.62503ZM12.3594 15.2414V15.25L11.5 14.6774V12.125H13.1875L12.3594 15.2414ZM14 10.875H11.5V5.87503H14C14.663 5.87503 15.2989 6.13842 15.7678 6.60726C16.2366 7.0761 16.5 7.71198 16.5 8.37503C16.5 9.03807 16.2366 9.67395 15.7678 10.1428C15.2989 10.6116 14.663 10.875 14 10.875Z" fill="#FFFFFF"/>
</svg>
