<svg width="18" height="18" viewBox="0 0 18 18" fill="none" xmlns="http://www.w3.org/2000/svg">
<path d="M9 0.875C7.39303 0.875 5.82214 1.35152 4.486 2.24431C3.14985 3.1371 2.10844 4.40605 1.49348 5.8907C0.87852 7.37535 0.717618 9.00901 1.03112 10.5851C1.34463 12.1612 2.11846 13.6089 3.25476 14.7452C4.39106 15.8815 5.8388 16.6554 7.4149 16.9689C8.99099 17.2824 10.6247 17.1215 12.1093 16.5065C13.594 15.8916 14.8629 14.8502 15.7557 13.514C16.6485 12.1779 17.125 10.607 17.125 9C17.1223 6.84594 16.2654 4.78088 14.7423 3.25773C13.2191 1.73457 11.1541 0.877688 9 0.875ZM5.5625 9.9375C5.37708 9.9375 5.19583 9.88252 5.04166 9.7795C4.88749 9.67649 4.76732 9.53007 4.69637 9.35876C4.62541 9.18746 4.60684 8.99896 4.64302 8.8171C4.67919 8.63525 4.76848 8.4682 4.89959 8.33709C5.0307 8.20598 5.19775 8.11669 5.37961 8.08051C5.56146 8.04434 5.74996 8.06291 5.92127 8.13386C6.09258 8.20482 6.23899 8.32498 6.34201 8.47915C6.44502 8.63332 6.5 8.81458 6.5 9C6.5 9.24864 6.40123 9.4871 6.22542 9.66291C6.0496 9.83873 5.81114 9.9375 5.5625 9.9375ZM9 9.9375C8.81458 9.9375 8.63333 9.88252 8.47916 9.7795C8.32499 9.67649 8.20482 9.53007 8.13387 9.35876C8.06291 9.18746 8.04434 8.99896 8.08052 8.8171C8.11669 8.63525 8.20598 8.4682 8.33709 8.33709C8.4682 8.20598 8.63525 8.11669 8.81711 8.08051C8.99896 8.04434 9.18746 8.06291 9.35877 8.13386C9.53007 8.20482 9.67649 8.32498 9.77951 8.47915C9.88252 8.63332 9.9375 8.81458 9.9375 9C9.9375 9.24864 9.83873 9.4871 9.66292 9.66291C9.4871 9.83873 9.24864 9.9375 9 9.9375ZM12.4375 9.9375C12.2521 9.9375 12.0708 9.88252 11.9167 9.7795C11.7625 9.67649 11.6423 9.53007 11.5714 9.35876C11.5004 9.18746 11.4818 8.99896 11.518 8.8171C11.5542 8.63525 11.6435 8.4682 11.7746 8.33709C11.9057 8.20598 12.0727 8.11669 12.2546 8.08051C12.4365 8.04434 12.625 8.06291 12.7963 8.13386C12.9676 8.20482 13.114 8.32498 13.217 8.47915C13.32 8.63332 13.375 8.81458 13.375 9C13.375 9.24864 13.2762 9.4871 13.1004 9.66291C12.9246 9.83873 12.6861 9.9375 12.4375 9.9375Z" fill="#219EBC"/>
</svg>
