<svg width="16" height="18" viewBox="0 0 16 18" fill="none" xmlns="http://www.w3.org/2000/svg">
<path d="M8 0.875C3.79453 0.875 0.5 2.79688 0.5 5.25V12.75C0.5 15.2031 3.79453 17.125 8 17.125C12.2055 17.125 15.5 15.2031 15.5 12.75V5.25C15.5 2.79688 12.2055 0.875 8 0.875ZM14.25 9C14.25 9.75156 13.6344 10.518 12.5617 11.1031C11.3539 11.7617 9.73359 12.125 8 12.125C6.26641 12.125 4.64609 11.7617 3.43828 11.1031C2.36563 10.518 1.75 9.75156 1.75 9V7.7C3.08281 8.87188 5.36172 9.625 8 9.625C10.6383 9.625 12.9172 8.86875 14.25 7.7V9ZM12.5617 14.8531C11.3539 15.5117 9.73359 15.875 8 15.875C6.26641 15.875 4.64609 15.5117 3.43828 14.8531C2.36563 14.268 1.75 13.5016 1.75 12.75V11.45C3.08281 12.6219 5.36172 13.375 8 13.375C10.6383 13.375 12.9172 12.6188 14.25 11.45V12.75C14.25 13.5016 13.6344 14.268 12.5617 14.8531Z" fill="#219EBC"/>
</svg>
