<svg width="18" height="18" viewBox="0 0 18 18" fill="none" xmlns="http://www.w3.org/2000/svg">
<path d="M15.25 6.49999C15.25 6.31457 15.305 6.13331 15.408 5.97914C15.511 5.82497 15.6574 5.70481 15.8287 5.63385C16 5.56289 16.1885 5.54433 16.3704 5.5805C16.5522 5.61667 16.7193 5.70596 16.8504 5.83707C16.9815 5.96819 17.0708 6.13523 17.107 6.31709C17.1432 6.49895 17.1246 6.68745 17.0536 6.85875C16.9827 7.03006 16.8625 7.17648 16.7083 7.27949C16.5542 7.3825 16.3729 7.43749 16.1875 7.43749C15.9389 7.43749 15.7004 7.33872 15.5246 7.1629C15.3488 6.98708 15.25 6.74863 15.25 6.49999ZM14.3125 4.62499C14.4979 4.62499 14.6792 4.57 14.8333 4.46699C14.9875 4.36398 15.1077 4.21756 15.1786 4.04625C15.2496 3.87495 15.2682 3.68645 15.232 3.50459C15.1958 3.32273 15.1065 3.15569 14.9754 3.02457C14.8443 2.89346 14.6772 2.80417 14.4954 2.768C14.3135 2.73183 14.125 2.75039 13.9537 2.82135C13.7824 2.89231 13.636 3.01247 13.533 3.16664C13.43 3.32081 13.375 3.50207 13.375 3.68749C13.375 3.93613 13.4738 4.17458 13.6496 4.3504C13.8254 4.52622 14.0639 4.62499 14.3125 4.62499ZM16.5516 8.99999C16.3864 8.98637 16.2227 9.03888 16.0962 9.14597C15.9698 9.25306 15.8911 9.40596 15.8773 9.57108C15.7655 10.8777 15.2828 12.1252 14.486 13.1667C13.6892 14.2083 12.6115 15.0007 11.3797 15.4505C10.1479 15.9004 8.81323 15.9891 7.53273 15.7061C6.25223 15.4232 5.07918 14.7804 4.15159 13.8534C3.22401 12.9264 2.58049 11.7538 2.29675 10.4735C2.01301 9.19313 2.10085 7.8584 2.54995 6.62631C2.99904 5.39422 3.79069 4.31602 4.83177 3.51859C5.87284 2.72116 7.12002 2.23766 8.42656 2.12499C8.50863 2.11822 8.58857 2.09534 8.66181 2.05768C8.73505 2.02001 8.80015 1.96829 8.8534 1.90547C8.90664 1.84264 8.947 1.76995 8.97215 1.69153C8.9973 1.61311 9.00677 1.5305 8.99999 1.44842C8.99322 1.36635 8.97035 1.28641 8.93269 1.21317C8.89502 1.13994 8.8433 1.07483 8.78048 1.02159C8.71765 0.968337 8.64495 0.927984 8.56653 0.90283C8.48811 0.877677 8.40551 0.868216 8.32343 0.874987C6.7797 1.00777 5.30601 1.57869 4.07573 2.52058C2.84545 3.46246 1.90977 4.73613 1.37877 6.19173C0.847769 7.64733 0.74354 9.22431 1.07835 10.7371C1.41315 12.25 2.17306 13.6357 3.26867 14.7313C4.36429 15.8269 5.75002 16.5868 7.26285 16.9216C8.77567 17.2564 10.3527 17.1522 11.8083 16.6212C13.2639 16.0902 14.5375 15.1545 15.4794 13.9243C16.4213 12.694 16.9922 11.2203 17.125 9.67655C17.1321 9.59442 17.1228 9.5117 17.0977 9.43316C17.0727 9.35463 17.0324 9.28182 16.9791 9.21893C16.9258 9.15605 16.8606 9.10433 16.7872 9.06675C16.7138 9.02918 16.6337 9.00648 16.5516 8.99999ZM8.99999 3.37499C10.1125 3.37499 11.2001 3.70489 12.1251 4.32297C13.0501 4.94105 13.7711 5.81956 14.1968 6.84739C14.6226 7.87523 14.734 9.00623 14.5169 10.0974C14.2999 11.1885 13.7641 12.1908 12.9775 12.9775C12.1908 13.7641 11.1885 14.2999 10.0974 14.5169C9.00624 14.7339 7.87523 14.6226 6.8474 14.1968C5.81957 13.7711 4.94106 13.0501 4.32298 12.1251C3.7049 11.2 3.37499 10.1125 3.37499 8.99999C3.37665 7.50865 3.96981 6.07887 5.02435 5.02434C6.07888 3.96981 7.50866 3.37664 8.99999 3.37499ZM8.37499 8.99999C8.37499 9.16575 8.44084 9.32472 8.55805 9.44193C8.67526 9.55914 8.83423 9.62499 8.99999 9.62499H12.75C12.9158 9.62499 13.0747 9.55914 13.1919 9.44193C13.3091 9.32472 13.375 9.16575 13.375 8.99999C13.375 8.83423 13.3091 8.67526 13.1919 8.55805C13.0747 8.44083 12.9158 8.37499 12.75 8.37499H9.62499V5.24999C9.62499 5.08423 9.55915 4.92526 9.44194 4.80805C9.32473 4.69084 9.16576 4.62499 8.99999 4.62499C8.83423 4.62499 8.67526 4.69084 8.55805 4.80805C8.44084 4.92526 8.37499 5.08423 8.37499 5.24999V8.99999ZM11.5 2.74999C11.6854 2.74999 11.8667 2.695 12.0208 2.59199C12.175 2.48898 12.2952 2.34256 12.3661 2.17125C12.4371 1.99995 12.4557 1.81145 12.4195 1.62959C12.3833 1.44773 12.294 1.28069 12.1629 1.14957C12.0318 1.01846 11.8647 0.929175 11.6829 0.893001C11.501 0.856827 11.3125 0.875393 11.1412 0.94635C10.9699 1.01731 10.8235 1.13747 10.7205 1.29164C10.6175 1.44581 10.5625 1.62707 10.5625 1.81249C10.5625 2.06113 10.6613 2.29958 10.8371 2.4754C11.0129 2.65122 11.2514 2.74999 11.5 2.74999Z" fill="#FFFFFF"/>
</svg>
