<svg width="16" height="14" viewBox="0 0 16 14" fill="none" xmlns="http://www.w3.org/2000/svg">
<path d="M14.6562 6.14875L11.8375 8.60875L12.6818 12.2712C12.7265 12.4627 12.7138 12.6631 12.6452 12.8474C12.5766 13.0316 12.4552 13.1916 12.2962 13.3072C12.1372 13.4229 11.9477 13.4891 11.7512 13.4976C11.5548 13.5061 11.3602 13.4565 11.1918 13.355L7.99747 11.4175L4.80996 13.355C4.64157 13.4565 4.447 13.5061 4.25057 13.4976C4.05415 13.4891 3.86459 13.4229 3.70559 13.3072C3.54659 13.1916 3.42521 13.0316 3.35662 12.8474C3.28803 12.6631 3.27528 12.4627 3.31996 12.2712L4.16309 8.6125L1.34372 6.14875C1.1946 6.02014 1.08677 5.85036 1.03375 5.66071C0.980734 5.47107 0.98489 5.26999 1.0457 5.08269C1.10651 4.89539 1.22126 4.73022 1.37556 4.60788C1.52987 4.48554 1.71686 4.41149 1.91309 4.395L5.62934 4.07312L7.07997 0.613122C7.15572 0.43157 7.2835 0.27649 7.44721 0.167408C7.61092 0.0583271 7.80324 0.00012207 7.99997 0.00012207C8.19669 0.00012207 8.38901 0.0583271 8.55272 0.167408C8.71643 0.27649 8.84421 0.43157 8.91997 0.613122L10.375 4.07312L14.09 4.395C14.2862 4.41149 14.4732 4.48554 14.6275 4.60788C14.7818 4.73022 14.8966 4.89539 14.9574 5.08269C15.0182 5.26999 15.0223 5.47107 14.9693 5.66071C14.9163 5.85036 14.8085 6.02014 14.6593 6.14875H14.6562Z" fill="#FACE71"/>
</svg>
