<svg width="16" height="16" viewBox="0 0 16 16" fill="none" xmlns="http://www.w3.org/2000/svg">
<path d="M4.875 6.69609L8.625 10.4461V15.1875C8.625 15.2704 8.59208 15.3499 8.53347 15.4085C8.47487 15.4671 8.39538 15.5 8.3125 15.5H1.75C1.41848 15.5 1.10054 15.3683 0.866116 15.1339C0.631696 14.8995 0.5 14.5815 0.5 14.25V1.75C0.5 1.41848 0.631696 1.10054 0.866116 0.866116C1.10054 0.631696 1.41848 0.5 1.75 0.5H3.3125C3.39538 0.5 3.47487 0.532924 3.53347 0.591529C3.59208 0.650134 3.625 0.72962 3.625 0.8125V9.98281C3.20799 10.1302 2.85653 10.4204 2.63273 10.8019C2.40893 11.1834 2.32721 11.6317 2.402 12.0676C2.4768 12.5036 2.70329 12.899 3.04146 13.1841C3.37963 13.4692 3.8077 13.6256 4.25 13.6256C4.6923 13.6256 5.12037 13.4692 5.45854 13.1841C5.79671 12.899 6.0232 12.5036 6.098 12.0676C6.17279 11.6317 6.09107 11.1834 5.86727 10.8019C5.64347 10.4204 5.29201 10.1302 4.875 9.98281V6.69609ZM4.25 12.375C4.37361 12.375 4.49445 12.3383 4.59723 12.2697C4.70001 12.201 4.78012 12.1034 4.82743 11.9892C4.87473 11.875 4.88711 11.7493 4.86299 11.6281C4.83888 11.5068 4.77935 11.3955 4.69194 11.3081C4.60453 11.2206 4.49317 11.1611 4.37193 11.137C4.25069 11.1129 4.12503 11.1253 4.01082 11.1726C3.89662 11.2199 3.79901 11.3 3.73033 11.4028C3.66166 11.5055 3.625 11.6264 3.625 11.75C3.625 11.9158 3.69085 12.0747 3.80806 12.1919C3.92527 12.3092 4.08424 12.375 4.25 12.375ZM12.375 6.125C12.375 6.00139 12.3383 5.88055 12.2697 5.77777C12.201 5.67499 12.1034 5.59488 11.9892 5.54757C11.875 5.50027 11.7493 5.48789 11.6281 5.51201C11.5068 5.53612 11.3955 5.59565 11.3081 5.68306C11.2206 5.77047 11.1611 5.88183 11.137 6.00307C11.1129 6.12431 11.1253 6.24997 11.1726 6.36418C11.2199 6.47838 11.3 6.57599 11.4028 6.64467C11.5055 6.71334 11.6264 6.75 11.75 6.75C11.9158 6.75 12.0747 6.68415 12.1919 6.56694C12.3092 6.44973 12.375 6.29076 12.375 6.125ZM14.25 0.5H10.1875C10.1046 0.5 10.0251 0.532924 9.96653 0.591529C9.90792 0.650134 9.875 0.72962 9.875 0.8125V3.36641L10.9422 4.43359C11.3413 4.24292 11.795 4.19949 12.223 4.31097C12.6511 4.42246 13.0259 4.68168 13.2813 5.04282C13.5367 5.40396 13.6562 5.84377 13.6187 6.28449C13.5812 6.72522 13.389 7.1385 13.0763 7.45127C12.7635 7.76404 12.3502 7.95616 11.9095 7.99368C11.4688 8.03121 11.029 7.91171 10.6678 7.65631C10.3067 7.40091 10.0475 7.02607 9.93597 6.59802C9.82449 6.16998 9.86792 5.7163 10.0586 5.31719L8.80859 4.06719C8.75043 4.00917 8.70428 3.94025 8.67278 3.86437C8.64127 3.7885 8.62504 3.70715 8.625 3.625V0.8125C8.625 0.72962 8.59208 0.650134 8.53347 0.591529C8.47487 0.532924 8.39538 0.5 8.3125 0.5H5.1875C5.10462 0.5 5.02513 0.532924 4.96653 0.591529C4.90792 0.650134 4.875 0.72962 4.875 0.8125V4.92891L9.69219 9.74531C9.75021 9.8034 9.79622 9.87235 9.82759 9.94822C9.85895 10.0241 9.87506 10.1054 9.875 10.1875V15.1875C9.875 15.2704 9.90792 15.3499 9.96653 15.4085C10.0251 15.4671 10.1046 15.5 10.1875 15.5H14.25C14.5815 15.5 14.8995 15.3683 15.1339 15.1339C15.3683 14.8995 15.5 14.5815 15.5 14.25V1.75C15.5 1.41848 15.3683 1.10054 15.1339 0.866116C14.8995 0.631696 14.5815 0.5 14.25 0.5Z" fill="#219EBC"/>
</svg>
