<svg width="20" height="14" viewBox="0 0 20 14" fill="none" xmlns="http://www.w3.org/2000/svg">
<path d="M12.8492 12.2836C12.9107 12.3779 12.9456 12.4871 12.9502 12.5996C12.9548 12.712 12.9289 12.8237 12.8753 12.9227C12.8216 13.0217 12.7423 13.1043 12.6456 13.162C12.5488 13.2196 12.4384 13.25 12.3258 13.25H0.79921C0.686628 13.25 0.576141 13.2196 0.479421 13.162C0.3827 13.1043 0.303339 13.0217 0.249721 12.9227C0.196103 12.8237 0.170219 12.712 0.174805 12.5996C0.17939 12.4871 0.214275 12.3779 0.275772 12.2836C1.15554 10.9294 2.44959 9.89598 3.96483 9.33751C3.12718 8.77985 2.49122 7.96742 2.151 7.02036C1.81079 6.07331 1.78438 5.04191 2.07569 4.07868C2.36699 3.11546 2.96054 2.27155 3.76856 1.67175C4.57658 1.07195 5.55618 0.748108 6.56249 0.748108C7.5688 0.748108 8.5484 1.07195 9.35642 1.67175C10.1644 2.27155 10.758 3.11546 11.0493 4.07868C11.3406 5.04191 11.3142 6.07331 10.974 7.02036C10.6338 7.96742 9.9978 8.77985 9.16015 9.33751C10.6754 9.89598 11.9694 10.9294 12.8492 12.2836ZM19.7172 12.2719C18.8372 10.9234 17.546 9.89441 16.0351 9.33751C17.024 8.67138 17.7219 7.65345 17.9868 6.4909C18.2516 5.32836 18.0634 4.10859 17.4606 3.07987C16.8578 2.05116 15.8856 1.29082 14.742 0.953627C13.5983 0.616432 12.3692 0.727725 11.3047 1.26485C11.264 1.28587 11.2284 1.31558 11.2004 1.35188C11.1725 1.38817 11.1529 1.43017 11.143 1.4749C11.133 1.51962 11.1331 1.56598 11.1431 1.61068C11.1531 1.65539 11.1728 1.69736 11.2008 1.7336C11.9923 2.72095 12.4469 3.93582 12.4979 5.20025C12.549 6.46469 12.1938 7.71224 11.4844 8.76017C11.4385 8.82865 11.4216 8.91247 11.4372 8.99339C11.4529 9.0743 11.4999 9.14576 11.568 9.1922C12.4929 9.83772 13.2847 10.6555 13.9 11.6008C14.1482 11.9808 14.2495 12.4382 14.1851 12.8875C14.1779 12.9322 14.1805 12.9779 14.1926 13.0215C14.2048 13.0652 14.2263 13.1056 14.2557 13.1401C14.285 13.1746 14.3215 13.2022 14.3626 13.2212C14.4037 13.2402 14.4485 13.25 14.4937 13.25H19.2047C19.3423 13.2501 19.4761 13.2047 19.5853 13.1209C19.6945 13.0371 19.773 12.9197 19.8086 12.7867C19.8303 12.6993 19.8334 12.6083 19.8177 12.5196C19.8019 12.4309 19.7677 12.3465 19.7172 12.2719Z" fill="#219EBC"/>
</svg>
